<svg xmlns="http://www.w3.org/2000/svg" width="184.545" height="97.335" viewBox="0 0 184.545 97.335">
  <path id="Path_591" data-name="Path 591" d="M-92.07-49.005q0,22.14,9.99,35.3T-51.57-.54q20.52,0,30.51-13.162t9.99-35.3q0-22.005-9.99-35.167T-51.57-97.335q-20.52,0-30.51,13.095T-92.07-49.005Zm51.435,0q0,9.585-2.16,14.85T-51.57-28.89q-6.75,0-8.91-5.265t-2.16-14.85q0-9.585,2.16-14.782t8.91-5.2q6.615,0,8.775,5.2T-40.635-49.005ZM.405-67.5V-95.58H46.17V0H14.715V-67.5Zm92.07,38.88V0h-29.7V-28.62Z" transform="translate(92.07 97.335)" fill="#ededed"/>
</svg>
