<svg xmlns="http://www.w3.org/2000/svg" width="207.09" height="98.145" viewBox="0 0 207.09 98.145">
  <path id="Path_592" data-name="Path 592" d="M-103.342-49.005q0,22.14,9.99,35.3T-62.842-.54q20.52,0,30.51-13.162t9.99-35.3q0-22.005-9.99-35.167t-30.51-13.162q-20.52,0-30.51,13.095T-103.342-49.005Zm51.435,0q0,9.585-2.16,14.85t-8.775,5.265q-6.75,0-8.91-5.265t-2.16-14.85q0-9.585,2.16-14.782t8.91-5.2q6.615,0,8.775,5.2T-51.908-49.005ZM-8.437-23.9Q9.248-37.26,19.575-47.655T29.9-66.285q0-6.75-4.725-6.75a3.96,3.96,0,0,0-3.847,2.363q-1.148,2.363-1.148,8.842H-8.842q.405-12.555,5.467-20.655A30.632,30.632,0,0,1,9.788-94.365a41.617,41.617,0,0,1,17.82-3.78q17.01,0,24.908,8.37a28.779,28.779,0,0,1,7.9,20.52q0,12.825-8.5,24.165A80.3,80.3,0,0,1,30.443-25.515H61.358V-1.35h-69.8ZM103.747-28.62V0h-29.7V-28.62Z" transform="translate(103.343 98.145)" fill="#ededed"/>
</svg>
