<svg xmlns="http://www.w3.org/2000/svg" xmlns:xlink="http://www.w3.org/1999/xlink" width="253.281" height="52.219" viewBox="0 0 253.281 52.219">
  <defs>
    <style>
      .cls-1 {
        fill: #707070;
      }

      .cls-2 {
        fill: url(#linear-gradient);
      }

      .cls-3 {
        fill: rgba(0,0,0,0.32);
      }

      .cls-4 {
        fill: none;
        stroke: #fff;
      }

      .cls-5 {
        fill: #00b1ff;
      }

      .cls-6 {
        fill: #fff;
      }
    </style>
    <linearGradient id="linear-gradient" x1="0.506" y1="-0.005" x2="0.5" y2="0.5" gradientUnits="objectBoundingBox">
      <stop offset="0" stop-color="#1eb1fc"/>
      <stop offset="1" stop-color="#714ae2"/>
    </linearGradient>
  </defs>
  <g id="Group_22" data-name="Group 22" transform="translate(-26.599 -19.099)">
    <path id="Path_589" data-name="Path 589" class="cls-1" d="M.945-8.575a8.209,8.209,0,0,1,.665-3.29,8.522,8.522,0,0,1,1.8-2.677,8.522,8.522,0,0,1,2.677-1.8,8.209,8.209,0,0,1,3.29-.665,8.209,8.209,0,0,1,3.29.665,8.522,8.522,0,0,1,2.677,1.8,8.522,8.522,0,0,1,1.8,2.677,8.209,8.209,0,0,1,.665,3.29v7.49a1.047,1.047,0,0,1-.315.77A1.047,1.047,0,0,1,16.73,0a1.047,1.047,0,0,1-.77-.315,1.047,1.047,0,0,1-.315-.77v-7.49a6.082,6.082,0,0,0-.49-2.432A6.34,6.34,0,0,0,13.807-13a6.34,6.34,0,0,0-1.995-1.347,6.082,6.082,0,0,0-2.432-.49,6.082,6.082,0,0,0-2.432.49,6.34,6.34,0,0,0-2,1.347,6.34,6.34,0,0,0-1.347,1.995,6.082,6.082,0,0,0-.49,2.432v7.49a1.047,1.047,0,0,1-.315.77A1.047,1.047,0,0,1,2.03,0a1.047,1.047,0,0,1-.77-.315,1.047,1.047,0,0,1-.315-.77ZM29.61-16.94a7.742,7.742,0,0,1,3.2.683A8.9,8.9,0,0,1,35.49-14.42a8.835,8.835,0,0,1,1.837,2.695,8.028,8.028,0,0,1,.683,3.29V-1.05a1.047,1.047,0,0,1-.315.77,1.047,1.047,0,0,1-.77.315,1.047,1.047,0,0,1-.77-.315,1.047,1.047,0,0,1-.315-.77V-3.185A10.963,10.963,0,0,1,33.058-.962a6.986,6.986,0,0,1-3.518.927,8.473,8.473,0,0,1-3.272-.63,8.446,8.446,0,0,1-2.678-1.75,8.175,8.175,0,0,1-1.82-2.66,8.385,8.385,0,0,1-.665-3.36,8.274,8.274,0,0,1,.647-3.273,8.334,8.334,0,0,1,1.785-2.66,8.713,8.713,0,0,1,2.7-1.82A9.22,9.22,0,0,1,29.61-16.94ZM23.275-8.435A6.082,6.082,0,0,0,23.765-6a6.34,6.34,0,0,0,1.347,1.995,6.34,6.34,0,0,0,2,1.348,6.082,6.082,0,0,0,2.432.49,6.06,6.06,0,0,0,2.38-.472A6.3,6.3,0,0,0,33.9-3.955a6.373,6.373,0,0,0,1.365-1.977,6.963,6.963,0,0,0,.577-2.5,6.208,6.208,0,0,0-.49-2.45A6.287,6.287,0,0,0,34-12.9a6.287,6.287,0,0,0-2.013-1.347,6.208,6.208,0,0,0-2.45-.49,6.082,6.082,0,0,0-2.432.49,6.34,6.34,0,0,0-2,1.347,6.287,6.287,0,0,0-1.347,2.013A6.208,6.208,0,0,0,23.275-8.435Zm18.2-.14a8.209,8.209,0,0,1,.665-3.29,8.522,8.522,0,0,1,1.8-2.677,8.522,8.522,0,0,1,2.678-1.8,8.209,8.209,0,0,1,3.29-.665,8.209,8.209,0,0,1,3.29.665,8.522,8.522,0,0,1,2.678,1.8,8.522,8.522,0,0,1,1.8,2.677,8.209,8.209,0,0,1,.665,3.29v7.49a1.047,1.047,0,0,1-.315.77A1.047,1.047,0,0,1,57.26,0a1.047,1.047,0,0,1-.77-.315,1.047,1.047,0,0,1-.315-.77v-7.49a6.082,6.082,0,0,0-.49-2.432A6.34,6.34,0,0,0,54.337-13a6.34,6.34,0,0,0-1.995-1.347,6.082,6.082,0,0,0-2.432-.49,6.082,6.082,0,0,0-2.432.49,6.34,6.34,0,0,0-2,1.347,6.34,6.34,0,0,0-1.347,1.995,6.082,6.082,0,0,0-.49,2.432v7.49a1.047,1.047,0,0,1-.315.77A1.047,1.047,0,0,1,42.56,0a1.047,1.047,0,0,1-.77-.315,1.047,1.047,0,0,1-.315-.77ZM70.14-16.94a7.742,7.742,0,0,1,3.2.683A8.9,8.9,0,0,1,76.02-14.42a8.835,8.835,0,0,1,1.837,2.695,8.028,8.028,0,0,1,.683,3.29A8,8,0,0,1,77.875-5.2a8.8,8.8,0,0,1-1.8,2.677A8.377,8.377,0,0,1,73.4-.7a8.3,8.3,0,0,1-3.325.665A8.473,8.473,0,0,1,66.8-.665a8.446,8.446,0,0,1-2.677-1.75,8.175,8.175,0,0,1-1.82-2.66,8.385,8.385,0,0,1-.665-3.36,8.274,8.274,0,0,1,.647-3.273,8.334,8.334,0,0,1,1.785-2.66,8.713,8.713,0,0,1,2.695-1.82A9.22,9.22,0,0,1,70.14-16.94ZM63.805-8.435A6.082,6.082,0,0,0,64.295-6a6.34,6.34,0,0,0,1.348,1.995,6.34,6.34,0,0,0,2,1.348,6.082,6.082,0,0,0,2.432.49,6.208,6.208,0,0,0,2.45-.49,6.287,6.287,0,0,0,2.012-1.348A6.34,6.34,0,0,0,75.88-6a6.082,6.082,0,0,0,.49-2.432,6.208,6.208,0,0,0-.49-2.45A6.287,6.287,0,0,0,74.533-12.9a6.287,6.287,0,0,0-2.012-1.347,6.208,6.208,0,0,0-2.45-.49,6.082,6.082,0,0,0-2.432.49,6.34,6.34,0,0,0-2,1.347,6.287,6.287,0,0,0-1.348,2.013A6.208,6.208,0,0,0,63.805-8.435ZM90.16-16.94a7.742,7.742,0,0,1,3.2.683A8.9,8.9,0,0,1,96.04-14.42a8.835,8.835,0,0,1,1.838,2.695,8.028,8.028,0,0,1,.682,3.29A8,8,0,0,1,97.9-5.2a8.8,8.8,0,0,1-1.8,2.677A8.377,8.377,0,0,1,93.415-.7a8.3,8.3,0,0,1-3.325.665,8.473,8.473,0,0,1-3.272-.63,8.446,8.446,0,0,1-2.678-1.75,8.175,8.175,0,0,1-1.82-2.66,8.385,8.385,0,0,1-.665-3.36,8.274,8.274,0,0,1,.648-3.273,8.334,8.334,0,0,1,1.785-2.66,8.713,8.713,0,0,1,2.695-1.82A9.22,9.22,0,0,1,90.16-16.94ZM83.825-8.435A6.082,6.082,0,0,0,84.315-6a6.34,6.34,0,0,0,1.348,1.995A6.34,6.34,0,0,0,87.658-2.66a6.082,6.082,0,0,0,2.433.49,6.208,6.208,0,0,0,2.45-.49,6.287,6.287,0,0,0,2.013-1.348A6.34,6.34,0,0,0,95.9-6a6.082,6.082,0,0,0,.49-2.432,6.208,6.208,0,0,0-.49-2.45A6.287,6.287,0,0,0,94.553-12.9a6.287,6.287,0,0,0-2.013-1.347,6.208,6.208,0,0,0-2.45-.49,6.082,6.082,0,0,0-2.433.49A6.34,6.34,0,0,0,85.663-12.9a6.287,6.287,0,0,0-1.348,2.013A6.208,6.208,0,0,0,83.825-8.435Zm27.4-2.8a3.682,3.682,0,0,0-1.1-2.555,3.4,3.4,0,0,0-2.468-1.015,3.445,3.445,0,0,0-1.382.28,3.427,3.427,0,0,0-1.12.77,3.789,3.789,0,0,0-.753,1.137,3.445,3.445,0,0,0-.28,1.382v10.15a1.047,1.047,0,0,1-.315.77,1.047,1.047,0,0,1-.77.315,1.047,1.047,0,0,1-.77-.315,1.047,1.047,0,0,1-.315-.77v-10.15a5.765,5.765,0,0,1,.438-2.24A5.576,5.576,0,0,1,103.6-15.3a5.813,5.813,0,0,1,1.82-1.225,5.573,5.573,0,0,1,2.24-.455,5.474,5.474,0,0,1,2.66.647,5.722,5.722,0,0,1,1.96,1.733,6.063,6.063,0,0,1,2-1.733,5.474,5.474,0,0,1,2.66-.647,5.573,5.573,0,0,1,2.24.455,5.813,5.813,0,0,1,1.82,1.225,5.813,5.813,0,0,1,1.225,1.82,5.573,5.573,0,0,1,.455,2.24v10.15a1.047,1.047,0,0,1-.315.77,1.047,1.047,0,0,1-.77.315,1.047,1.047,0,0,1-.77-.315,1.047,1.047,0,0,1-.315-.77v-10.15a3.445,3.445,0,0,0-.28-1.382,3.631,3.631,0,0,0-.77-1.137,3.631,3.631,0,0,0-1.138-.77,3.445,3.445,0,0,0-1.382-.28,3.445,3.445,0,0,0-1.382.28,3.427,3.427,0,0,0-1.12.77,3.789,3.789,0,0,0-.752,1.137,3.445,3.445,0,0,0-.28,1.382v10.15a1.047,1.047,0,0,1-.315.77,1.047,1.047,0,0,1-.77.315,1.047,1.047,0,0,1-.77-.315,1.047,1.047,0,0,1-.315-.77Zm15.19-10.22a1.047,1.047,0,0,1,.315-.77,1.047,1.047,0,0,1,.77-.315h5.95a7.936,7.936,0,0,1,3.2.647,8.318,8.318,0,0,1,2.59,1.75,8.317,8.317,0,0,1,1.75,2.59,7.85,7.85,0,0,1,.648,3.167A7.85,7.85,0,0,1,141-11.217a8.318,8.318,0,0,1-1.75,2.59,8.076,8.076,0,0,1-2.59,1.732,8.126,8.126,0,0,1-3.2.63H128.59V-1.12a1.047,1.047,0,0,1-.315.77,1.047,1.047,0,0,1-.77.315,1.047,1.047,0,0,1-.77-.315,1.047,1.047,0,0,1-.315-.77Zm2.17,1.085V-8.435h4.865a5.809,5.809,0,0,0,2.345-.473,6.292,6.292,0,0,0,1.908-1.278A5.927,5.927,0,0,0,139-12.075a5.722,5.722,0,0,0,.473-2.31,5.722,5.722,0,0,0-.473-2.31,6.136,6.136,0,0,0-1.295-1.907,6.136,6.136,0,0,0-1.908-1.3,5.809,5.809,0,0,0-2.345-.473Zm24.15,3.43a7.742,7.742,0,0,1,3.2.683,8.9,8.9,0,0,1,2.678,1.837,8.835,8.835,0,0,1,1.837,2.695,8.028,8.028,0,0,1,.683,3.29V-1.05a1.047,1.047,0,0,1-.315.77,1.047,1.047,0,0,1-.77.315,1.047,1.047,0,0,1-.77-.315,1.047,1.047,0,0,1-.315-.77V-3.185a10.963,10.963,0,0,1-2.783,2.222,6.986,6.986,0,0,1-3.518.927,8.474,8.474,0,0,1-3.273-.63,8.446,8.446,0,0,1-2.677-1.75,8.175,8.175,0,0,1-1.82-2.66,8.385,8.385,0,0,1-.665-3.36,8.274,8.274,0,0,1,.647-3.273,8.334,8.334,0,0,1,1.785-2.66,8.713,8.713,0,0,1,2.7-1.82A9.22,9.22,0,0,1,152.74-16.94ZM146.4-8.435A6.083,6.083,0,0,0,146.895-6a6.34,6.34,0,0,0,1.348,1.995,6.34,6.34,0,0,0,2,1.348,6.082,6.082,0,0,0,2.432.49,6.06,6.06,0,0,0,2.38-.472,6.3,6.3,0,0,0,1.977-1.312,6.373,6.373,0,0,0,1.365-1.977,6.964,6.964,0,0,0,.577-2.5,6.208,6.208,0,0,0-.49-2.45,6.287,6.287,0,0,0-1.348-2.013,6.287,6.287,0,0,0-2.012-1.347,6.208,6.208,0,0,0-2.45-.49,6.082,6.082,0,0,0-2.432.49,6.34,6.34,0,0,0-2,1.347,6.287,6.287,0,0,0-1.348,2.013A6.208,6.208,0,0,0,146.4-8.435ZM180.88,5.25a1.085,1.085,0,1,1-2.17,0V-2.8a8.463,8.463,0,0,1-2.765,2.047,8.162,8.162,0,0,1-3.5.752,8.209,8.209,0,0,1-3.29-.665,8.522,8.522,0,0,1-2.677-1.8,8.522,8.522,0,0,1-1.8-2.678,8.209,8.209,0,0,1-.665-3.29v-7.49a1.047,1.047,0,0,1,.315-.77,1.047,1.047,0,0,1,.77-.315,1.047,1.047,0,0,1,.77.315,1.047,1.047,0,0,1,.315.77v7.49A6.083,6.083,0,0,0,166.67-6a6.34,6.34,0,0,0,1.348,1.995,6.34,6.34,0,0,0,1.995,1.348,6.083,6.083,0,0,0,2.433.49,6.06,6.06,0,0,0,2.38-.472,6.4,6.4,0,0,0,1.96-1.278,6.208,6.208,0,0,0,1.348-1.907,6.453,6.453,0,0,0,.577-2.362v-7.735a1.047,1.047,0,0,1,.315-.77,1.047,1.047,0,0,1,.77-.315,1.047,1.047,0,0,1,.77.315,1.047,1.047,0,0,1,.315.77V5.25Z" transform="translate(99 57)"/>
    <g id="Nanoom_Logo" data-name="Nanoom Logo" transform="translate(26.599 19.099)">
      <path id="Back_Rectangle" data-name="Back Rectangle" class="cls-2" d="M2.66,0H21.28a2.648,2.648,0,0,1,2.66,2.635l-.021,40.537-9.555.048A14.3,14.3,0,0,1,0,28.989V2.635A2.648,2.648,0,0,1,2.66,0Z" transform="translate(61.606 30.847) rotate(135)"/>
      <path id="Front_Rectangle" data-name="Front Rectangle" class="cls-3" d="M.114,0,7.183.037a7.232,7.232,0,0,0-2.8,3.518c.016.019-.855,1.22-1.137,6.252s.048,14.151.048,14.151L0,23.985Z" transform="translate(47.599 16.801) rotate(45)"/>
      <line id="Line_1" data-name="Line 1" class="cls-4" x1="30" y1="29.1" transform="translate(23.901 9.401)"/>
      <path id="Front_Rectangle-2" data-name="Front Rectangle" class="cls-5" d="M14.364,0,30.225.045a10.6,10.6,0,0,0-5.244,5.9,19.522,19.522,0,0,0-1.019,6.467L23.94,40.964a2.66,2.66,0,0,1-2.66,2.66H2.66A2.66,2.66,0,0,1,0,40.964v-26.6A14.364,14.364,0,0,1,14.364,0Z" transform="translate(30.847 0) rotate(45)"/>
      <g id="nano-1" transform="matrix(0.966, -0.259, 0.259, 0.966, 6.549, 14.34)">
        <circle id="Ellipse_1" data-name="Ellipse 1" class="cls-6" cx="4.082" cy="4.082" r="4.082" transform="translate(0 16.158)"/>
        <path id="Path_1" data-name="Path 1" class="cls-6" d="M20.666,8.164h-.341c-3.571,0-4.082-.849-4.082-4.082a4.082,4.082,0,0,0-8.164,0c0,3.233-.511,4-4.082,4H3.656a3.993,3.993,0,0,0-3.656,4,4.084,4.084,0,0,0,4.082,4.082,4.006,4.006,0,0,0,4-3.741v-.256c0-2.977.934-4.082,4.082-4.082s4.082,1.1,4.082,4a4.084,4.084,0,0,0,4.082,4.082,4.031,4.031,0,0,0,4.082-4.082A4.118,4.118,0,0,0,20.666,8.164Z" transform="translate(8.079 0)"/>
      </g>
    </g>
  </g>
</svg>
