<svg xmlns="http://www.w3.org/2000/svg" xmlns:xlink="http://www.w3.org/1999/xlink" width="582" height="232" viewBox="0 0 582 232">
  <defs>
    <linearGradient id="linear-gradient" x1="0.418" y1="0.038" x2="0.64" y2="1.45" gradientUnits="objectBoundingBox">
      <stop offset="0" stop-color="#1eb1fc"/>
      <stop offset="1" stop-color="#5e6ce1"/>
    </linearGradient>
    <filter id="Rectangle_8" x="0" y="0" width="582" height="232" filterUnits="userSpaceOnUse">
      <feOffset dy="3" input="SourceAlpha"/>
      <feGaussianBlur stdDeviation="20" result="blur"/>
      <feFlood flood-opacity="0.161"/>
      <feComposite operator="in" in2="blur"/>
      <feComposite in="SourceGraphic"/>
    </filter>
  </defs>
  <g id="Group_121" data-name="Group 121" transform="translate(-776 -4646)">
    <g transform="matrix(1, 0, 0, 1, 776, 4646)" filter="url(#Rectangle_8)">
      <rect id="Rectangle_8-2" data-name="Rectangle 8" width="462" height="112" rx="18" transform="translate(60 57)" fill="url(#linear-gradient)"/>
    </g>
    <g id="Group_24" data-name="Group 24" transform="translate(892.607 4721.972)">
      <g id="Group_22" data-name="Group 22" transform="translate(0 0)">
        <path id="Path_593" data-name="Path 593" d="M1.269-11.515a11.024,11.024,0,0,1,.893-4.418,11.444,11.444,0,0,1,2.421-3.6,11.444,11.444,0,0,1,3.6-2.421,11.024,11.024,0,0,1,4.418-.893,11.024,11.024,0,0,1,4.418.893,11.444,11.444,0,0,1,3.6,2.421,11.444,11.444,0,0,1,2.421,3.6,11.024,11.024,0,0,1,.893,4.418V-1.457A1.407,1.407,0,0,1,23.5-.423,1.407,1.407,0,0,1,22.466,0a1.407,1.407,0,0,1-1.034-.423,1.407,1.407,0,0,1-.423-1.034V-11.515a8.168,8.168,0,0,0-.658-3.266,8.514,8.514,0,0,0-1.809-2.679,8.514,8.514,0,0,0-2.679-1.81,8.168,8.168,0,0,0-3.266-.658,8.168,8.168,0,0,0-3.267.658A8.514,8.514,0,0,0,6.65-17.46a8.514,8.514,0,0,0-1.809,2.679,8.168,8.168,0,0,0-.658,3.266V-1.457A1.407,1.407,0,0,1,3.76-.423,1.407,1.407,0,0,1,2.726,0,1.407,1.407,0,0,1,1.692-.423a1.407,1.407,0,0,1-.423-1.034ZM39.762-22.748a10.4,10.4,0,0,1,4.3.916,11.95,11.95,0,0,1,3.6,2.468,11.865,11.865,0,0,1,2.468,3.619,10.781,10.781,0,0,1,.917,4.418V-1.41a1.407,1.407,0,0,1-.423,1.034,1.407,1.407,0,0,1-1.034.423,1.407,1.407,0,0,1-1.034-.423,1.407,1.407,0,0,1-.423-1.034V-4.277a14.722,14.722,0,0,1-3.736,2.984A9.381,9.381,0,0,1,39.668-.047a11.379,11.379,0,0,1-4.395-.846,11.341,11.341,0,0,1-3.6-2.35,10.978,10.978,0,0,1-2.444-3.572,11.26,11.26,0,0,1-.893-4.512,11.111,11.111,0,0,1,.869-4.395,11.192,11.192,0,0,1,2.4-3.572,11.7,11.7,0,0,1,3.619-2.444A12.382,12.382,0,0,1,39.762-22.748ZM31.255-11.327a8.168,8.168,0,0,0,.658,3.266,8.514,8.514,0,0,0,1.81,2.679A8.514,8.514,0,0,0,36.4-3.572a8.168,8.168,0,0,0,3.267.658,8.138,8.138,0,0,0,3.2-.634A8.455,8.455,0,0,0,45.52-5.311a8.558,8.558,0,0,0,1.833-2.655,9.351,9.351,0,0,0,.775-3.36,8.337,8.337,0,0,0-.658-3.29,8.443,8.443,0,0,0-1.81-2.7,8.442,8.442,0,0,0-2.7-1.809,8.337,8.337,0,0,0-3.29-.658,8.168,8.168,0,0,0-3.267.658,8.514,8.514,0,0,0-2.679,1.809,8.442,8.442,0,0,0-1.81,2.7A8.337,8.337,0,0,0,31.255-11.327Zm24.44-.188a11.024,11.024,0,0,1,.893-4.418,11.444,11.444,0,0,1,2.421-3.6,11.444,11.444,0,0,1,3.6-2.421,11.024,11.024,0,0,1,4.418-.893,11.024,11.024,0,0,1,4.418.893,11.444,11.444,0,0,1,3.6,2.421,11.444,11.444,0,0,1,2.421,3.6,11.024,11.024,0,0,1,.893,4.418V-1.457a1.407,1.407,0,0,1-.423,1.034A1.407,1.407,0,0,1,76.892,0a1.407,1.407,0,0,1-1.034-.423,1.407,1.407,0,0,1-.423-1.034V-11.515a8.168,8.168,0,0,0-.658-3.266,8.514,8.514,0,0,0-1.81-2.679,8.514,8.514,0,0,0-2.679-1.81,8.168,8.168,0,0,0-3.266-.658,8.168,8.168,0,0,0-3.267.658,8.514,8.514,0,0,0-2.679,1.81,8.514,8.514,0,0,0-1.81,2.679,8.168,8.168,0,0,0-.658,3.266V-1.457a1.407,1.407,0,0,1-.423,1.034A1.407,1.407,0,0,1,57.152,0a1.407,1.407,0,0,1-1.034-.423,1.407,1.407,0,0,1-.423-1.034ZM94.188-22.748a10.4,10.4,0,0,1,4.3.916,11.95,11.95,0,0,1,3.6,2.468,11.864,11.864,0,0,1,2.467,3.619,10.781,10.781,0,0,1,.917,4.418,10.743,10.743,0,0,1-.893,4.347,11.813,11.813,0,0,1-2.421,3.6,11.249,11.249,0,0,1-3.6,2.444,11.141,11.141,0,0,1-4.465.893A11.379,11.379,0,0,1,89.7-.893a11.341,11.341,0,0,1-3.6-2.35A10.978,10.978,0,0,1,83.66-6.815a11.26,11.26,0,0,1-.893-4.512,11.11,11.11,0,0,1,.87-4.395,11.192,11.192,0,0,1,2.4-3.572,11.7,11.7,0,0,1,3.619-2.444A12.382,12.382,0,0,1,94.188-22.748ZM85.681-11.327a8.168,8.168,0,0,0,.658,3.266,8.514,8.514,0,0,0,1.809,2.679,8.514,8.514,0,0,0,2.679,1.81,8.168,8.168,0,0,0,3.267.658,8.337,8.337,0,0,0,3.29-.658,8.443,8.443,0,0,0,2.7-1.81,8.514,8.514,0,0,0,1.81-2.679,8.168,8.168,0,0,0,.658-3.266,8.337,8.337,0,0,0-.658-3.29,8.443,8.443,0,0,0-1.81-2.7,8.442,8.442,0,0,0-2.7-1.809,8.337,8.337,0,0,0-3.29-.658,8.168,8.168,0,0,0-3.267.658,8.514,8.514,0,0,0-2.679,1.809,8.443,8.443,0,0,0-1.809,2.7A8.337,8.337,0,0,0,85.681-11.327Zm35.391-11.421a10.4,10.4,0,0,1,4.3.916,11.95,11.95,0,0,1,3.6,2.468,11.865,11.865,0,0,1,2.467,3.619,10.781,10.781,0,0,1,.916,4.418,10.743,10.743,0,0,1-.893,4.347,11.813,11.813,0,0,1-2.421,3.6,11.249,11.249,0,0,1-3.6,2.444,11.141,11.141,0,0,1-4.465.893,11.379,11.379,0,0,1-4.395-.846,11.341,11.341,0,0,1-3.6-2.35,10.978,10.978,0,0,1-2.444-3.572,11.26,11.26,0,0,1-.893-4.512,11.11,11.11,0,0,1,.87-4.395,11.192,11.192,0,0,1,2.4-3.572,11.7,11.7,0,0,1,3.619-2.444A12.382,12.382,0,0,1,121.072-22.748Zm-8.507,11.421a8.168,8.168,0,0,0,.658,3.266,8.514,8.514,0,0,0,1.809,2.679,8.514,8.514,0,0,0,2.679,1.81,8.168,8.168,0,0,0,3.267.658,8.337,8.337,0,0,0,3.29-.658,8.442,8.442,0,0,0,2.7-1.81,8.514,8.514,0,0,0,1.81-2.679,8.168,8.168,0,0,0,.658-3.266,8.337,8.337,0,0,0-.658-3.29,8.443,8.443,0,0,0-1.81-2.7,8.442,8.442,0,0,0-2.7-1.809,8.337,8.337,0,0,0-3.29-.658,8.168,8.168,0,0,0-3.267.658,8.514,8.514,0,0,0-2.679,1.809,8.443,8.443,0,0,0-1.809,2.7A8.337,8.337,0,0,0,112.565-11.327Zm36.8-3.76a4.944,4.944,0,0,0-1.48-3.431,4.561,4.561,0,0,0-3.314-1.363,4.627,4.627,0,0,0-1.856.376,4.6,4.6,0,0,0-1.5,1.034,5.089,5.089,0,0,0-1.01,1.528,4.627,4.627,0,0,0-.376,1.856v13.63A1.407,1.407,0,0,1,139.4-.423,1.407,1.407,0,0,1,138.368,0a1.407,1.407,0,0,1-1.034-.423,1.407,1.407,0,0,1-.423-1.034v-13.63a7.742,7.742,0,0,1,.587-3.008,7.489,7.489,0,0,1,1.622-2.444,7.806,7.806,0,0,1,2.444-1.645,7.483,7.483,0,0,1,3.008-.611,7.35,7.35,0,0,1,3.572.869,7.684,7.684,0,0,1,2.632,2.327,8.142,8.142,0,0,1,2.679-2.327,7.35,7.35,0,0,1,3.572-.869,7.483,7.483,0,0,1,3.008.611,7.806,7.806,0,0,1,2.444,1.645,7.806,7.806,0,0,1,1.645,2.444,7.483,7.483,0,0,1,.611,3.008v13.63a1.407,1.407,0,0,1-.423,1.034A1.407,1.407,0,0,1,163.278,0a1.407,1.407,0,0,1-1.034-.423,1.407,1.407,0,0,1-.423-1.034v-13.63a4.627,4.627,0,0,0-.376-1.856,4.876,4.876,0,0,0-1.034-1.528,4.876,4.876,0,0,0-1.527-1.034,4.627,4.627,0,0,0-1.857-.376,4.627,4.627,0,0,0-1.857.376,4.6,4.6,0,0,0-1.5,1.034,5.089,5.089,0,0,0-1.01,1.528,4.627,4.627,0,0,0-.376,1.856v13.63a1.407,1.407,0,0,1-.423,1.034A1.407,1.407,0,0,1,150.823,0a1.407,1.407,0,0,1-1.034-.423,1.407,1.407,0,0,1-.423-1.034Zm20.4-13.724a1.407,1.407,0,0,1,.423-1.034,1.407,1.407,0,0,1,1.034-.423h7.99a10.657,10.657,0,0,1,4.3.869,11.169,11.169,0,0,1,3.478,2.35,11.169,11.169,0,0,1,2.35,3.478,10.541,10.541,0,0,1,.87,4.253,10.541,10.541,0,0,1-.87,4.254,11.169,11.169,0,0,1-2.35,3.478,10.845,10.845,0,0,1-3.478,2.326,10.912,10.912,0,0,1-4.3.846h-6.533V-1.5a1.407,1.407,0,0,1-.423,1.034,1.407,1.407,0,0,1-1.034.423,1.407,1.407,0,0,1-1.034-.423,1.407,1.407,0,0,1-.423-1.034Zm2.914,1.457v16.027h6.533a7.8,7.8,0,0,0,3.149-.635,8.45,8.45,0,0,0,2.561-1.715,7.959,7.959,0,0,0,1.739-2.538,7.684,7.684,0,0,0,.635-3.1,7.684,7.684,0,0,0-.635-3.1,8.24,8.24,0,0,0-1.739-2.561,8.24,8.24,0,0,0-2.561-1.739,7.8,7.8,0,0,0-3.149-.635Zm32.43,4.606a10.4,10.4,0,0,1,4.3.916,11.95,11.95,0,0,1,3.6,2.468,11.865,11.865,0,0,1,2.467,3.619,10.781,10.781,0,0,1,.917,4.418V-1.41a1.407,1.407,0,0,1-.423,1.034,1.407,1.407,0,0,1-1.034.423A1.407,1.407,0,0,1,213.9-.376a1.407,1.407,0,0,1-.423-1.034V-4.277a14.722,14.722,0,0,1-3.736,2.984,9.381,9.381,0,0,1-4.723,1.246,11.379,11.379,0,0,1-4.395-.846,11.341,11.341,0,0,1-3.6-2.35,10.978,10.978,0,0,1-2.444-3.572,11.26,11.26,0,0,1-.893-4.512,11.111,11.111,0,0,1,.87-4.395,11.191,11.191,0,0,1,2.4-3.572,11.7,11.7,0,0,1,3.619-2.444A12.382,12.382,0,0,1,205.108-22.748ZM196.6-11.327a8.168,8.168,0,0,0,.658,3.266,8.514,8.514,0,0,0,1.809,2.679,8.514,8.514,0,0,0,2.679,1.81,8.168,8.168,0,0,0,3.267.658,8.138,8.138,0,0,0,3.2-.634,8.455,8.455,0,0,0,2.655-1.763A8.558,8.558,0,0,0,212.7-7.966a9.351,9.351,0,0,0,.775-3.36,8.336,8.336,0,0,0-.658-3.29,8.442,8.442,0,0,0-1.809-2.7,8.442,8.442,0,0,0-2.7-1.809,8.337,8.337,0,0,0-3.29-.658,8.168,8.168,0,0,0-3.267.658,8.514,8.514,0,0,0-2.679,1.809,8.442,8.442,0,0,0-1.809,2.7A8.336,8.336,0,0,0,196.6-11.327ZM242.9,7.05a1.457,1.457,0,1,1-2.914,0V-3.76a11.364,11.364,0,0,1-3.713,2.749A10.961,10.961,0,0,1,231.569,0a11.024,11.024,0,0,1-4.418-.893,11.444,11.444,0,0,1-3.6-2.421,11.444,11.444,0,0,1-2.42-3.6,11.024,11.024,0,0,1-.893-4.418V-21.385a1.407,1.407,0,0,1,.423-1.034,1.407,1.407,0,0,1,1.034-.423,1.407,1.407,0,0,1,1.034.423,1.407,1.407,0,0,1,.423,1.034v10.058a8.168,8.168,0,0,0,.658,3.266,8.514,8.514,0,0,0,1.809,2.679,8.514,8.514,0,0,0,2.679,1.81,8.168,8.168,0,0,0,3.266.658,8.138,8.138,0,0,0,3.2-.634A8.589,8.589,0,0,0,237.4-5.264a8.336,8.336,0,0,0,1.809-2.562A8.666,8.666,0,0,0,239.982-11V-21.385a1.407,1.407,0,0,1,.423-1.034,1.407,1.407,0,0,1,1.034-.423,1.407,1.407,0,0,1,1.034.423,1.407,1.407,0,0,1,.423,1.034V7.05Z" transform="translate(101.393 51.028)" fill="#fff"/>
        <g id="Nanoom_Logo" data-name="Nanoom Logo" transform="translate(0 0)">
          <path id="Back_Rectangle" data-name="Back Rectangle" d="M3.705,0H29.643a3.688,3.688,0,0,1,3.705,3.671l-.029,56.468-13.31.067A19.917,19.917,0,0,1,0,40.382V3.671A3.688,3.688,0,0,1,3.705,0Z" transform="translate(85.817 42.969) rotate(135)" fill="#353e90"/>
          <path id="Front_Rectangle" data-name="Front Rectangle" d="M.159,0l9.847.051s-2.181,1.095-3.9,4.9c.022.026-1.192,1.7-1.584,8.708s.068,19.712.068,19.712L0,33.411Z" transform="translate(66.305 23.404) rotate(45)" fill="rgba(0,0,0,0.32)"/>
          <path id="Path_25" data-name="Path 25" d="M41.924,41.877,0,0" transform="translate(32.629 12.358)" fill="none" stroke="#fff" stroke-width="1"/>
          <path id="Front_Rectangle-2" data-name="Front Rectangle" d="M20.009,0,42.1.062a14.77,14.77,0,0,0-7.3,8.212,27.194,27.194,0,0,0-1.419,9.008l-.031,39.779a3.705,3.705,0,0,1-3.705,3.705H3.705A3.705,3.705,0,0,1,0,57.062V20.009A20.009,20.009,0,0,1,20.009,0Z" transform="translate(42.969 0) rotate(45)" fill="#fff"/>
          <g id="nano-1" transform="matrix(0.966, -0.259, 0.259, 0.966, 9.123, 19.975)">
            <circle id="Ellipse_1" data-name="Ellipse 1" cx="5.686" cy="5.686" r="5.686" transform="translate(0 22.507)" fill="#1eb1fc"/>
            <path id="Path_1" data-name="Path 1" d="M28.787,11.372h-.475c-4.974,0-5.686-1.183-5.686-5.686a5.686,5.686,0,0,0-11.372,0c0,4.5-.713,5.567-5.686,5.567H5.092A5.562,5.562,0,0,0,0,16.821a5.689,5.689,0,0,0,5.686,5.686A5.58,5.58,0,0,0,11.254,17.3V16.94c0-4.147,1.3-5.686,5.686-5.686s5.686,1.539,5.686,5.567a5.689,5.689,0,0,0,5.686,5.686A5.615,5.615,0,0,0,34,16.821,5.737,5.737,0,0,0,28.787,11.372Z" transform="translate(11.254 0)" fill="#1eb1fc"/>
          </g>
        </g>
      </g>
    </g>
  </g>
</svg>
