<svg xmlns="http://www.w3.org/2000/svg" width="146" height="122" viewBox="0 0 146 122">
  <defs>
    <style>
      .cls-1 {
        fill: rgba(232,224,255,0.5);
      }

      .cls-2 {
        fill: rgba(211,242,255,0.55);
      }

      .cls-3, .cls-7 {
        fill: none;
      }

      .cls-3 {
        stroke: #00b1ff;
        stroke-width: 2px;
      }

      .cls-4 {
        fill: #00b1ff;
      }

      .cls-5 {
        fill: #fff;
      }

      .cls-6 {
        stroke: none;
      }
    </style>
  </defs>
  <g id="Non-Custodial_Icon" data-name="Non-Custodial Icon" transform="translate(-1491 -1316)">
    <g id="BG" transform="translate(1491 1315.701)">
      <circle id="Ellipse_33" data-name="Ellipse 33" class="cls-1" cx="39.5" cy="39.5" r="39.5" transform="translate(0 3.299)"/>
      <circle id="Ellipse_34" data-name="Ellipse 34" class="cls-1" cx="28" cy="28" r="28" transform="translate(90 62.299)"/>
      <ellipse id="Ellipse_32" data-name="Ellipse 32" class="cls-2" cx="57" cy="56.5" rx="57" ry="56.5" transform="translate(22 0.299)"/>
      <g id="Ellipse_38" data-name="Ellipse 38" class="cls-3" transform="translate(14 9.299)">
        <circle class="cls-6" cx="56.5" cy="56.5" r="56.5"/>
        <circle class="cls-7" cx="56.5" cy="56.5" r="55.5"/>
      </g>
    </g>
    <g id="Icon_ionic-ios-wallet" data-name="Icon ionic-ios-wallet" transform="translate(1530.55 1347.915)">
      <path id="Path_572" data-name="Path 572" class="cls-4" d="M49.808,11.25H11.2a7.832,7.832,0,0,0-7.826,7.826V40.988A7.832,7.832,0,0,0,11.2,48.814H49.808a7.832,7.832,0,0,0,7.826-7.826V19.076A7.832,7.832,0,0,0,49.808,11.25Z" transform="translate(0 5.772)"/>
      <path id="Path_573" data-name="Path 573" class="cls-4" d="M40.877,4.631,10.239,10.618C7.891,11.14,4.5,13.5,4.5,16.37c0,0,1.956-2.478,6.391-2.478H48.324V11.218a7.49,7.49,0,0,0-1.813-4.9h0A6.168,6.168,0,0,0,40.877,4.631Z" transform="translate(0.962)"/>
      <circle id="Ellipse_153" data-name="Ellipse 153" class="cls-5" cx="4" cy="4" r="4" transform="translate(46.45 32.085)"/>
    </g>
    <g id="nano-1" transform="translate(1542.834 1369.427)">
      <circle id="Ellipse_1" data-name="Ellipse 1" class="cls-5" cx="2.13" cy="2.13" r="2.13" transform="translate(0 16.429)"/>
      <path id="Path_1" data-name="Path 1" class="cls-5" d="M269.691,8a2.131,2.131,0,0,0-2.13,2.13c0,1.687-.267,2.13-2.13,2.13h-.178a2.083,2.083,0,0,0-1.907,2.085v.044c0,1.642-.311,2.041-2.13,2.041a.333.333,0,0,0-.222.044,2.112,2.112,0,0,0,.222,4.215,2.09,2.09,0,0,0,2.085-1.952v-.178c0-1.509.487-2.085,2.085-2.13h.044a2.1,2.1,0,0,0,2.085-2V14.3c0-1.553.487-2.13,2.13-2.13a2.131,2.131,0,0,0,2.13-2.13A2.074,2.074,0,0,0,269.691,8Zm-12.51,4.259H257c-1.863,0-2.13-.443-2.13-2.13a2.13,2.13,0,0,0-4.259,0c0,1.687-.267,2.085-2.13,2.085h-.178A2.083,2.083,0,0,0,246.4,14.3a2.131,2.131,0,0,0,2.13,2.13,2.09,2.09,0,0,0,2.085-1.952v-.133c0-1.553.487-2.13,2.13-2.13s2.13.576,2.13,2.085a2.131,2.131,0,0,0,2.13,2.13,2.1,2.1,0,0,0,2.13-2.13A2.148,2.148,0,0,0,257.181,12.259Z" transform="translate(-242.185)"/>
    </g>
  </g>
</svg>
